P3
11 10
255
255 255 255
255 255 255
0 0 0
255 255 255
0 0 0
255 255 255
255 255 255
0 0 0
255 255 255
255 255 255
255 255 255
255 255 255
0 0 0
255 255 255
255 255 255
255 255 255
255 255 255
255 255 255
255 255 255
255 255 255
255 255 255
255 255 255
255 255 255
255 255 255
0 0 0
0 0 0
255 255 255
255 255 255
255 255 255
255 255 255
255 255 255
255 255 255
0 0 0
255 255 255
255 255 255
255 255 255
255 255 255
255 255 255
255 255 255
255 255 255
255 255 255
255 255 255
255 255 255
255 255 255
255 255 255
255 255 255
255 255 255
255 255 255
255 255 255
255 255 255
255 255 255
0 0 0
255 255 255
255 255 255
255 255 255
100 100 100
0 0 0
0 0 0
100 100 100
100 100 100
255 255 255
255 255 255
255 255 255
255 255 255
255 255 255
255 255 255
100 100 100
0 0 0
0 0 0
255 255 255
100 100 100
0 0 0
255 255 255
255 255 255
255 255 255
255 255 255
255 255 255
100 100 100
255 255 255
255 255 255
0 0 0
0 0 0
255 255 255
0 0 0
255 255 255
255 255 255
255 255 255
255 255 255
100 100 100
100 200 0
0 0 0
255 255 255
100 100 100
255 255 255
255 255 255
255 255 255
255 255 255
0 0 0
255 255 255
100 100 100
100 100 100
100 100 100
100 100 100
100 100 100
255 255 255
255 255 255
255 255 255
255 255 255
255 255 255
255 255 255
